<?xml version="1.0" encoding="UTF-8" standalone="no"?>
<!DOCTYPE svg PUBLIC "-//W3C//DTD SVG 1.1//EN" "http://www.w3.org/Graphics/SVG/1.1/DTD/svg11.dtd">
<svg width="100%" height="100%" viewBox="0 0 395 367" version="1.1" xmlns="http://www.w3.org/2000/svg" xmlns:xlink="http://www.w3.org/1999/xlink" xml:space="preserve" xmlns:serif="http://www.serif.com/" style="fill-rule:evenodd;clip-rule:evenodd;stroke-linejoin:round;stroke-miterlimit:2;">
    <g transform="matrix(1,0,0,1,-21.6375,-34.7688)">
        <g transform="matrix(0.82874,0,0,1.06255,-289.272,-1923.69)">
            <g transform="matrix(1.39365,0,0,1.39365,-142.959,-712.101)">
                <g transform="matrix(0.865824,0,0,0.675305,34.3436,924.371)">
                    <path d="M421.557,1396.64C427.86,1410.32 436.665,1430.6 443.609,1452.12C454.141,1484.74 462.993,1526.53 458.445,1581.06C457.329,1594.44 454.786,1608.53 454.358,1610.9C453.191,1617.36 448.864,1641.34 434.077,1690.43C432.27,1696.43 430.854,1700.96 430.844,1700.98C430.53,1701.38 430.34,1701.92 429.9,1702.17C429.891,1702.17 428.534,1702.36 428.415,1702.38L426.95,1701.38L427,1699.93C432.075,1677.17 438.204,1647.68 439.605,1597.84C439.656,1596.01 439.904,1587.19 439.843,1574.97C439.513,1508.89 424.479,1460.46 400.407,1408.3C391.912,1389.89 391.217,1389.6 390.323,1385.79C387.889,1375.43 394.869,1365.65 407.963,1366.65C421.949,1367.72 447.66,1381.84 463.827,1395.93C479.48,1409.58 493.414,1428.12 503.76,1443.84C505.739,1422.24 504.717,1407.51 501.081,1387.19C499.278,1377.12 496.137,1361.52 496.022,1360.76C495.92,1360.09 495.819,1359.41 495.804,1358.73C495.681,1353.28 499.09,1350.1 499.673,1349.56C500.144,1349.12 502.794,1346.66 507.045,1346.34C509.7,1346.14 515.541,1347.21 516.271,1347.34C572.888,1357.66 609.91,1426.33 621.975,1550.43C627.161,1603.77 626.391,1654.59 625.536,1681.93C632.466,1679.56 638.87,1672.81 646.923,1658.2C650.93,1650.93 657.853,1636.84 658.652,1635.53C659.008,1634.94 659.341,1634.34 659.758,1633.79C660.244,1633.16 663.098,1629.43 668.583,1629.1C669.381,1629.06 674.068,1628.78 677.898,1632.72C678.127,1632.95 679.349,1634.21 680.213,1636.11C680.652,1637.07 681.194,1639.16 681.264,1639.43C687.116,1662.01 687.412,1666.29 689.991,1682.7C694.453,1679.22 699.345,1672.4 705.429,1659.23C708.797,1651.94 710.631,1647.44 721.918,1619.08C726.359,1607.92 730.762,1595.88 740.361,1566.18C750.173,1535.81 760.668,1501.36 767.805,1466.02C769.49,1457.68 769.926,1454.3 769.93,1454.29C770.166,1453.85 770.251,1453.28 770.64,1452.96C770.653,1452.95 772.108,1452.51 772.116,1452.52C772.559,1452.75 773.123,1452.85 773.442,1453.24C774.064,1453.99 773.938,1454.07 773.869,1455.05C773.11,1465.87 764.614,1526.45 758.904,1556.78C756.035,1572.02 752.751,1587.07 747.486,1605.59C745.463,1612.7 743.564,1619.39 735.108,1643.65C723.685,1676.43 713.269,1702.22 689.796,1708.38C686.414,1709.27 683.426,1709.55 681.327,1709.64C678.192,1709.78 675.984,1708.74 675.559,1708.54C674.903,1708.23 671.11,1706.44 669.486,1701.79C669.187,1700.94 668.813,1698.91 668.766,1698.66C666.622,1687.05 665.706,1680.9 664.805,1675.48C656.692,1689.06 646.918,1700.55 632.279,1705.17C624.394,1707.65 617.094,1707.43 611.636,1706.66C609.292,1706.33 607.798,1705.57 607.489,1705.41C602.838,1703.05 601.581,1698.78 601.365,1698.05C601.179,1697.42 601.045,1696.77 600.964,1696.12C600.683,1693.85 601.149,1693.85 601.665,1667.61C603.685,1565.03 592.846,1477 567.364,1423.56C552.711,1392.83 536.352,1380.12 523.468,1374.68C530.093,1409.64 531.759,1428.19 523.212,1482.04C522.372,1487.33 518.556,1489.84 517.902,1490.27C517.247,1490.7 513.431,1493.21 508.242,1491.9C504.182,1490.87 502.009,1488.05 501.622,1487.55C500.588,1486.21 500.715,1486.13 498.265,1481.68C492.322,1470.89 469.672,1431.07 443.737,1410.72C436.747,1405.24 428.646,1400.27 421.557,1396.64Z"/>
                </g>
                <g transform="matrix(0.865824,0,0,0.675305,42.4966,929.588)">
                    <path d="M476.397,1514.6C475.392,1510.31 478.067,1506 482.367,1504.99C486.666,1503.99 490.972,1506.66 491.977,1510.96C496.145,1528.8 496.009,1528.46 496.803,1546.98C496.992,1551.39 493.564,1555.13 489.153,1555.32C484.741,1555.51 481.007,1552.08 480.818,1547.67C480.089,1530.67 480.222,1530.98 476.397,1514.6Z"/>
                </g>
                <g transform="matrix(0.865824,0,0,0.675305,91.4782,924.335)">
                    <path d="M476.397,1514.6C475.392,1510.31 478.067,1506 482.367,1504.99C486.666,1503.99 490.972,1506.66 491.977,1510.96C496.145,1528.8 496.009,1528.46 496.803,1546.98C496.992,1551.39 493.564,1555.13 489.153,1555.32C484.741,1555.51 481.007,1552.08 480.818,1547.67C480.089,1530.67 480.222,1530.98 476.397,1514.6Z"/>
                </g>
            </g>
        </g>
    </g>
</svg>
